<?xml version="1.0" encoding="utf-8"?>
<!-- Generator: Adobe Illustrator 28.1.0, SVG Export Plug-In . SVG Version: 6.00 Build 0)  -->
<svg version="1.1" id="Layer_1" xmlns="http://www.w3.org/2000/svg" xmlns:xlink="http://www.w3.org/1999/xlink" x="0px" y="0px"
	 viewBox="0 0 841.9 595.3" style="enable-background:new 0 0 841.9 595.3;" xml:space="preserve">
<style type="text/css">
	.st0{opacity:0.97;}
	.st1{fill:#231F20;}
	.st2{fill:#FFFFFF;}
	.st3{fill:#D9B569;}
	.st4{fill:none;stroke:#231F20;stroke-miterlimit:10;}
</style>
<rect x="365.3" y="191.5" class="st0" width="355.1" height="206.8"/>
<path class="st1" d="M118.7,316.7v-65.1h4.3v65.1H118.7z M136.5,286.5l-13-30.8h-1.1v-4h3.8l13,30.8h0.1l0.6,4H136.5z M138.7,286.5
	l0.6-4h0.1l13-30.8h4.6v4H155l-13,30.8H138.7z M155.5,316.7v-65.1h4.3v65.1H155.5z"/>
<path class="st1" d="M178,317.2l21.2-65.1h6.3l21.2,65.1h-4.6l-19.5-61.1h-0.5l-19.5,61.1H178z M185.7,299v-4.1h33v4.1H185.7z"/>
<path class="st1" d="M269.8,317.6c-8.9,0-15.8-2.9-20.7-8.8c-4.9-5.9-7.3-14.1-7.3-24.8c0-10.6,2.4-18.8,7.2-24.6
	c4.8-5.8,11.6-8.7,20.4-8.7c4.2,0,7.8,0.6,11.1,1.9s5.7,3,7.5,5.2l-3.2,3.1c-1.8-2-4-3.5-6.5-4.5c-2.6-1.1-5.4-1.6-8.3-1.6
	c-7.6,0-13.4,2.5-17.6,7.5s-6.3,12.1-6.3,21.3c0,9.5,2.2,16.8,6.5,22.1c4.3,5.2,10.4,7.8,18.3,7.8c2.8,0,5.4-0.3,7.5-0.8
	c2.2-0.6,4-1,5.4-1.4l2.7,3.7c-1.3,0.4-3.4,1-6.4,1.7S273.7,317.6,269.8,317.6z M265.6,290.5v-4h20.6v4H265.6z M282.2,314.9v-28.4
	h4.3v28.4H282.2z"/>
<path class="st1" d="M313.8,317.6v-65.1h4.3v65.1H313.8z M345.7,317.6l-27.2-61.1h-2.7v-4h5.4l27.2,61.1h1.9v4H345.7z M348.7,317.6
	v-65.1h4.3v65.1H348.7z"/>
<path class="st2" d="M402.8,256.7v-4.1h37.4v4.1H402.8z M402.8,317.6v-4.1h37.4v4.1H402.8z M419.3,317.6v-65.1h4.3v65.1H419.3z"/>
<path class="st2" d="M499.7,318.1c-13.2,0-19.8-7.3-19.8-21.8v-44.2h4.3v44.2c0,5.9,1.3,10.3,3.8,13.3s6.5,4.4,11.9,4.4
	c10.5,0,15.7-5.9,15.7-17.7v-44.2h4.3v44.2c0,7.3-1.7,12.7-5.1,16.4C511.4,316.3,506.3,318.1,499.7,318.1z"/>
<path class="st2" d="M574.3,317.6c-3.4,0-6.6-0.3-9.6-0.8c-3-0.5-5.9-1.3-8.6-2.3l0.6-4.4c3.1,1.1,6.3,2,9.3,2.6
	c3.1,0.6,6.1,0.9,9,0.9c5.7,0,9.9-1,12.7-2.9c2.8-2,4.2-4.9,4.2-8.8c0-5.1-2.4-8.9-7.2-11.5l-17.6-9.3c-3.1-1.7-5.4-3.6-7-5.9
	c-1.6-2.3-2.4-5-2.4-8.3c0-5.3,1.6-9.4,4.7-12c3.2-2.7,7.9-4,14.3-4c4,0,7.7,0.6,11,1.9c3.3,1.3,6.3,3.2,8.9,5.8l-3,3
	c-2.8-2.2-5.7-3.8-8.5-4.9c-2.8-1.1-5.6-1.6-8.4-1.6c-4.9,0-8.6,1-11,3c-2.4,2-3.7,5-3.7,9c0,2.4,0.6,4.5,1.8,6.1s3,3.1,5.4,4.4
	l16.3,8.4c3.6,1.9,6.2,4.1,8,6.8c1.8,2.7,2.6,5.8,2.6,9.2c0,5.3-1.8,9.3-5.5,11.9S581.7,317.6,574.3,317.6z"/>
<g>
	<path class="st3" d="M483.9,350.3v-1.6h16v1.6H483.9z M489.6,358.6v-15.5h1.7v15.5H489.6z M496.2,367.7c-2.2,0-3.8-0.6-4.9-1.9
		s-1.6-3.1-1.6-5.7v-3h1.7v3c0,2,0.4,3.5,1.3,4.5s2.2,1.5,3.9,1.5c0.7,0,1.4,0,2-0.1s1.3-0.2,1.9-0.3l0.2,1.6
		c-0.8,0.1-1.5,0.2-2.2,0.3S497,367.7,496.2,367.7z"/>
	<path class="st3" d="M515.5,367.7c-3,0-5.4-0.9-7-2.6s-2.5-4.2-2.5-7.3c0-3,0.7-5.3,2.1-7s3.4-2.5,5.9-2.5c2.4,0,4.2,0.7,5.5,2.2
		s2,3.6,2,6.3c0,0.7,0,1.2-0.1,1.5h-14.1v-1.6h12.5c0-2.2-0.5-3.9-1.5-5.1s-2.4-1.8-4.2-1.8c-2,0-3.6,0.7-4.7,2.1s-1.7,3.3-1.7,5.8
		c0,2.6,0.7,4.6,2.2,6.1s3.5,2.2,6.1,2.2c0.7,0,1.4,0,2.1-0.1s1.5-0.2,2.2-0.4l0.3,1.6c-0.7,0.2-1.4,0.3-2.3,0.4
		S516.4,367.7,515.5,367.7z"/>
	<path class="st3" d="M526.6,342.6V341h6.4v1.6H526.6z M539,367.7c-2.1,0-3.7-0.5-4.7-1.6s-1.6-2.7-1.6-4.9V341h1.7v20.2
		c0,1.1,0.2,2,0.5,2.7s0.9,1.3,1.6,1.6s1.6,0.5,2.7,0.5c0.9,0,2.1-0.2,3.5-0.5l0.2,1.6c-0.7,0.2-1.3,0.3-1.9,0.4
		S539.7,367.7,539,367.7z"/>
	<path class="st3" d="M554.6,367.7c-1.3,0-2.5,0-3.4-0.1s-1.8-0.2-2.5-0.4l0.2-1.7c1.2,0.2,2.2,0.3,3.1,0.4s1.8,0.1,2.6,0.1
		c2.5,0,4.3-0.3,5.4-0.8s1.7-1.4,1.7-2.6c0-0.8-0.3-1.5-0.9-2.1s-1.5-1-2.8-1.3l-4.1-1c-1.8-0.4-3.1-1.1-3.9-1.9s-1.2-1.8-1.2-2.9
		c0-1.8,0.7-3.1,2.2-3.9s3.9-1.2,7.3-1.2c0.8,0,1.5,0,2.2,0.1s1.5,0.1,2.3,0.3l-0.2,1.5c-1-0.1-1.8-0.2-2.5-0.2s-1.3-0.1-1.9-0.1
		c-2.7,0-4.7,0.3-5.9,0.8s-1.8,1.4-1.8,2.7c0,0.7,0.3,1.3,1,1.9s1.7,1,3.2,1.4l3.3,0.8c1.9,0.5,3.3,1.1,4.1,2s1.2,1.9,1.2,3.2
		c0,1.8-0.7,3-2.1,3.8S557.7,367.7,554.6,367.7z"/>
	<path class="st3" d="M595.8,367.7c-2.1,0-3.8-0.6-5-1.7s-1.8-2.7-1.8-4.7c0-1.9,0.5-3.4,1.6-4.6s2.6-2,4.6-2.3l0.9,1.1
		c-1.7,0.4-3.1,1.1-4,2.1s-1.4,2.2-1.4,3.6c0,1.6,0.5,2.8,1.4,3.7s2.3,1.3,4,1.3c2.7,0,4.8-1.1,6.3-3.2s2.2-5.1,2.2-9h1.7
		c0,4.4-0.9,7.8-2.8,10.2S599.2,367.7,595.8,367.7z M606.5,367.4l-12.5-12.6c-0.8-0.8-1.3-1.6-1.8-2.6s-0.7-2-0.7-3.1
		c0-2.2,0.6-3.9,1.8-5.2s2.9-1.8,5.1-1.8l0.1,1.6c-1.7,0-3,0.5-3.9,1.4s-1.4,2.3-1.4,4c0,0.9,0.2,1.8,0.7,2.7s1,1.7,1.8,2.4
		l13.2,13.2H606.5z M603,347.7c0-1.3-0.4-2.3-1.2-3s-1.9-1-3.3-1l-0.1-1.6c2,0,3.5,0.5,4.6,1.5s1.6,2.3,1.6,4.1H603z"/>
	<path class="st3" d="M639,367.7c-1.3,0-2.5,0-3.4-0.1s-1.8-0.2-2.5-0.4l0.2-1.7c1.2,0.2,2.2,0.3,3.1,0.4s1.8,0.1,2.6,0.1
		c2.5,0,4.3-0.3,5.4-0.8s1.7-1.4,1.7-2.6c0-0.8-0.3-1.5-0.9-2.1s-1.5-1-2.8-1.3l-4.1-1c-1.8-0.4-3.1-1.1-3.9-1.9s-1.2-1.8-1.2-2.9
		c0-1.8,0.7-3.1,2.2-3.9s3.9-1.2,7.3-1.2c0.8,0,1.5,0,2.2,0.1s1.5,0.1,2.3,0.3l-0.2,1.5c-1-0.1-1.8-0.2-2.5-0.2s-1.3-0.1-1.9-0.1
		c-2.7,0-4.7,0.3-5.9,0.8s-1.8,1.4-1.8,2.7c0,0.7,0.3,1.3,1,1.9s1.7,1,3.2,1.4l3.3,0.8c1.9,0.5,3.3,1.1,4.1,2s1.2,1.9,1.2,3.2
		c0,1.8-0.7,3-2.1,3.8S642.1,367.7,639,367.7z"/>
	<path class="st3" d="M654.4,375.5v-26.7h1.3l0.4,4.5v22.3H654.4z M662.5,367.7c-1.9,0-3.3-0.4-4.4-1.3s-1.7-2-2-3.5h-1.4l1.3-4.8
		c0,2.6,0.5,4.6,1.6,5.9s2.6,2,4.6,2c2,0,3.5-0.7,4.6-2s1.5-3.3,1.5-5.9c0-2.7-0.5-4.8-1.5-6.1s-2.5-2.1-4.5-2.1c-2,0-3.6,0.7-4.6,2
		s-1.6,3.3-1.6,6l-1.1-5h1.2c0.3-1.5,1-2.6,2-3.4s2.5-1.1,4.2-1.1c2.5,0,4.4,0.8,5.6,2.5s1.9,4.1,1.9,7.3c0,3.1-0.6,5.5-1.9,7.1
		S665,367.7,662.5,367.7z"/>
	<g>
		<path class="st3" d="M443.4,367.4V341h1.7v26.4H443.4z M456.1,367.4v-12.2c0-1.7-0.4-2.9-1.3-3.8s-2.1-1.3-3.7-1.3
			c-4,0-6,2.3-6,6.8l-1.1-4.7h1.3c0.3-1.3,1-2.2,1.9-2.8s2.2-0.9,3.8-0.9c2.2,0,3.8,0.6,5,1.8s1.8,2.9,1.8,5.1v12.1H456.1z"/>
		<path class="st3" d="M471.7,367.7c-2.4,0-4.3-0.8-5.7-2.5s-2-4.1-2-7.1c0-3.1,0.7-5.5,2-7.1s3.3-2.5,5.7-2.5
			c2.4,0,4.4,0.8,5.7,2.5s2,4.1,2,7.1c0,3.1-0.7,5.4-2,7.1S474.1,367.7,471.7,367.7z M471.7,366.1c1.9,0,3.4-0.7,4.5-2.1
			s1.6-3.4,1.6-6s-0.5-4.5-1.6-6s-2.5-2.1-4.5-2.1s-3.4,0.7-4.5,2.1s-1.6,3.4-1.6,6s0.5,4.5,1.6,6S469.8,366.1,471.7,366.1z"/>
		<path class="st3" d="M680,367.7c-1.8,0-3.3-0.4-4.3-1.3s-1.5-2-1.5-3.6c0-2,0.7-3.4,2-4.4s3.4-1.5,6-1.5c1.3,0,2.5,0.1,3.7,0.2
			s2,0.3,2.6,0.5l-0.2,1.4c-0.8-0.3-1.7-0.5-2.9-0.5s-2.3-0.1-3.3-0.1c-4.2,0-6.3,1.4-6.3,4.2c0,1.1,0.4,1.9,1.1,2.5s1.7,0.9,3,0.9
			c1.4,0,2.6-0.2,3.7-0.7s1.9-1.1,2.6-1.9s0.9-1.7,0.9-2.7v-2.2l1.3,4.8h-1.5l0.3-0.4c-0.1,0.9-0.5,1.7-1.1,2.4s-1.5,1.3-2.6,1.7
			S681.3,367.7,680,367.7z M687.5,367.6l-0.3-7.3l-0.1,0.4v-4c0-2.2-0.5-3.9-1.6-4.9s-2.9-1.5-5.3-1.6l-3.7-0.1l0.4-1.6l3.3,0.1
			c3,0,5.2,0.7,6.6,2s2,3.4,2,6.2v9.2l3.2,0.2v1.1L687.5,367.6z"/>
	</g>
</g>
<polyline class="st4" points="402.8,146.3 337.4,146.3 95.2,146.3 95.2,434.3 337.4,434.3 402.8,434.3 "/>
</svg>
